<?xml version="1.0" encoding="UTF-8"?>
<svg xmlns="http://www.w3.org/2000/svg" width="1123" height="794" viewBox="0 0 1123 794">
<defs>
  <filter id="shadow" x="-4%" y="-4%" width="108%" height="108%">
    <feDropShadow dx="0" dy="2" stdDeviation="3" flood-color="#000000" flood-opacity="0.10"/>
  </filter>
  <marker id="pa" markerWidth="10" markerHeight="7" refX="9" refY="3.5" orient="auto">
    <polygon points="0,0 10,3.5 0,7" fill="#0078D4"/>
  </marker>
  <marker id="sa" markerWidth="8" markerHeight="6" refX="7" refY="3" orient="auto">
    <polygon points="0,0 8,3 0,6" fill="#8A8886"/>
  </marker>
  <symbol id="ic-user" viewBox="0 0 20 18"><path d="M10 2a4 4 0 1 0 0 8 4 4 0 0 0 0-8zm-8 12c0-3.3 3.6-6 8-6s8 2.7 8 6v1H2v-1z" fill="currentColor"/></symbol><symbol id="ic-server" viewBox="0 0 20 18"><path d="M2 3h16v5H2V3zm0 7h16v5H2v-5zm3 1.5h2v1H5v-1zm0-6h2v1H5v-1z" fill="currentColor"/></symbol><symbol id="ic-api" viewBox="0 0 20 18"><path d="M3 5h14v2H3V5zm0 4h10v2H3V9zm0 4h12v2H3v-2z" fill="currentColor"/></symbol><symbol id="ic-database" viewBox="0 0 20 18"><path d="M10 2c4.4 0 8 1.8 8 4s-3.6 4-8 4-8-1.8-8-4 3.6-4 8-4zm-8 6v2c0 2.2 3.6 4 8 4s8-1.8 8-4V8M2 12v2c0 2.2 3.6 4 8 4s8-1.8 8-4v-2" fill="currentColor"/></symbol><symbol id="ic-wallet" viewBox="0 0 20 18"><path d="M3 6h14a2 2 0 0 1 2 2v1H3V6zm0 3h16v5a2 2 0 0 1-2 2H3a2 2 0 0 1-2-2V9h16V7H3z" fill="currentColor"/></symbol><symbol id="ic-queue" viewBox="0 0 20 18"><path d="M3 3h14v4H3V3zm0 6h14v4H3V9zm0 6h10v4H3v-4z" fill="currentColor"/></symbol><symbol id="ic-monitor" viewBox="0 0 20 18"><path d="M2 3h16v9H2V3zm5 10h6v3H7v-3z" fill="currentColor"/></symbol><symbol id="ic-shield" viewBox="0 0 20 18"><path d="M10 1l8 3.5v4.5c0 5.2-3.8 8.8-8 9.5C5.8 17.8 2 14.2 2 9V4.5L10 1z" fill="currentColor"/></symbol><symbol id="ic-container" viewBox="0 0 20 18"><path d="M2 5h16v10H2V5zm3 2v2h2V7H5zm5 0v2h2V7h-2zm5 0v2h2V7h-2z" fill="currentColor"/></symbol><symbol id="ic-cloud" viewBox="0 0 20 18"><path d="M5 14h10a3.5 3.5 0 0 0 .4-7A4.5 4.5 0 0 0 6.5 4.5 3.5 3.5 0 0 0 5 14z" fill="currentColor"/></symbol>
</defs><rect width="1123" height="794" fill="#FFFFFF"/>
<text x="28" y="28" font-family="Segoe UI, Arial, sans-serif" font-size="11" fill="#605E5C">Figure 8.1</text>
<text x="28" y="58" font-family="Segoe UI, Arial, sans-serif" font-size="37" font-weight="700" fill="#201F1E">Complete Exchange Ecosystem</text>
<text x="28" y="82" font-family="Segoe UI, Arial, sans-serif" font-size="19" fill="#605E5C"><tspan font-weight="700">Purpose: </tspan>Full ecosystem map showing actors, channels, platform services, financial processing, infrastructure, and observability.</text>
<line x1="28" y1="90" x2="1095" y2="90" stroke="#D2D0CE" stroke-width="1"/>
<rect x="28" y="104" width="1067" height="84" fill="#F5F5F5" fill-opacity="0.55" stroke="#C8C6C4" stroke-width="1.5"/>
<text x="42" y="130" font-family="Segoe UI, Arial, sans-serif" font-size="21" font-weight="700" fill="#201F1E">Actors &amp; Channels</text>
<line x1="28" y1="192" x2="1095" y2="192" stroke="#D2D0CE" stroke-width="1"/>
<rect x="28" y="196" width="1067" height="84" fill="#EBEBEB" fill-opacity="0.55" stroke="#C8C6C4" stroke-width="1.5"/>
<text x="42" y="222" font-family="Segoe UI, Arial, sans-serif" font-size="21" font-weight="700" fill="#201F1E">Edge &amp; Gateway</text>
<line x1="28" y1="283" x2="1095" y2="283" stroke="#D2D0CE" stroke-width="1"/>
<rect x="28" y="287" width="1067" height="84" fill="#F5F5F5" fill-opacity="0.55" stroke="#C8C6C4" stroke-width="1.5"/>
<text x="42" y="313" font-family="Segoe UI, Arial, sans-serif" font-size="21" font-weight="700" fill="#201F1E">Application Services</text>
<line x1="28" y1="375" x2="1095" y2="375" stroke="#D2D0CE" stroke-width="1"/>
<rect x="28" y="379" width="1067" height="84" fill="#EBEBEB" fill-opacity="0.55" stroke="#C8C6C4" stroke-width="1.5"/>
<text x="42" y="405" font-family="Segoe UI, Arial, sans-serif" font-size="21" font-weight="700" fill="#201F1E">Domain Services</text>
<line x1="28" y1="467" x2="1095" y2="467" stroke="#D2D0CE" stroke-width="1"/>
<rect x="28" y="471" width="1067" height="84" fill="#F5F5F5" fill-opacity="0.55" stroke="#C8C6C4" stroke-width="1.5"/>
<text x="42" y="497" font-family="Segoe UI, Arial, sans-serif" font-size="21" font-weight="700" fill="#201F1E">Financial Processing</text>
<line x1="28" y1="559" x2="1095" y2="559" stroke="#D2D0CE" stroke-width="1"/>
<rect x="28" y="563" width="1067" height="84" fill="#EBEBEB" fill-opacity="0.55" stroke="#C8C6C4" stroke-width="1.5"/>
<text x="42" y="589" font-family="Segoe UI, Arial, sans-serif" font-size="21" font-weight="700" fill="#201F1E">Platform Infrastructure</text>
<line x1="28" y1="650" x2="1095" y2="650" stroke="#D2D0CE" stroke-width="1"/>
<rect x="28" y="654" width="1067" height="84" fill="#F5F5F5" fill-opacity="0.55" stroke="#C8C6C4" stroke-width="1.5"/>
<text x="42" y="680" font-family="Segoe UI, Arial, sans-serif" font-size="21" font-weight="700" fill="#201F1E">Observability</text>
<g id="bActo0">
  <rect x="48" y="110" width="190" height="72" rx="12" fill="#E7DFEC" stroke="#5C2D91" stroke-width="2" filter="url(#shadow)"/>
  <g transform="translate(72,134)"><use href="#ic-user" x="0" y="0" width="24" height="24" color="#5C2D91"/></g>
  <text x="104" y="151" font-family="Segoe UI, Arial, sans-serif" font-size="20" font-weight="600" fill="#3B1F5E">Retail Users</text>
</g>
<g id="bActo1">
  <rect x="262" y="110" width="190" height="72" rx="12" fill="#E7DFEC" stroke="#5C2D91" stroke-width="2" filter="url(#shadow)"/>
  <g transform="translate(286,134)"><use href="#ic-user" x="0" y="0" width="24" height="24" color="#5C2D91"/></g>
  <text x="318" y="151" font-family="Segoe UI, Arial, sans-serif" font-size="20" font-weight="600" fill="#3B1F5E">Institutions</text>
</g>
<g id="bActo2">
  <rect x="476" y="110" width="190" height="72" rx="12" fill="#E7DFEC" stroke="#5C2D91" stroke-width="2" filter="url(#shadow)"/>
  <g transform="translate(500,134)"><use href="#ic-user" x="0" y="0" width="24" height="24" color="#5C2D91"/></g>
  <text x="532" y="151" font-family="Segoe UI, Arial, sans-serif" font-size="20" font-weight="600" fill="#3B1F5E">Administrators</text>
</g>
<g id="bActo3">
  <rect x="691" y="110" width="190" height="72" rx="12" fill="#DEECF9" stroke="#0078D4" stroke-width="2" filter="url(#shadow)"/>
  <g transform="translate(715,134)"><use href="#ic-server" x="0" y="0" width="24" height="24" color="#0078D4"/></g>
  <text x="747" y="151" font-family="Segoe UI, Arial, sans-serif" font-size="20" font-weight="600" fill="#003966">Web</text>
</g>
<g id="bActo4">
  <rect x="905" y="110" width="190" height="72" rx="12" fill="#DEECF9" stroke="#0078D4" stroke-width="2" filter="url(#shadow)"/>
  <g transform="translate(929,134)"><use href="#ic-server" x="0" y="0" width="24" height="24" color="#0078D4"/></g>
  <text x="961" y="151" font-family="Segoe UI, Arial, sans-serif" font-size="20" font-weight="600" fill="#003966">Mobile</text>
</g>
<g id="bEdge0">
  <rect x="48" y="202" width="196" height="72" rx="12" fill="#E7DFEC" stroke="#5C2D91" stroke-width="2" filter="url(#shadow)"/>
  <g transform="translate(72,226)"><use href="#ic-api" x="0" y="0" width="24" height="24" color="#5C2D91"/></g>
  <text x="104" y="243" font-family="Segoe UI, Arial, sans-serif" font-size="20" font-weight="600" fill="#3B1F5E">API Consumers</text>
</g>
<g id="bEdge1">
  <rect x="268" y="202" width="196" height="72" rx="12" fill="#F3F2F1" stroke="#605E5C" stroke-width="2" filter="url(#shadow)"/>
  <g transform="translate(292,226)"><use href="#ic-server" x="0" y="0" width="24" height="24" color="#605E5C"/></g>
  <text x="324" y="243" font-family="Segoe UI, Arial, sans-serif" font-size="20" font-weight="600" fill="#323130">Gateway</text>
</g>
<g id="bEdge2">
  <rect x="488" y="202" width="196" height="72" rx="12" fill="#F3F2F1" stroke="#605E5C" stroke-width="2" filter="url(#shadow)"/>
  <g transform="translate(512,226)"><use href="#ic-shield" x="0" y="0" width="24" height="24" color="#605E5C"/></g>
  <text x="544" y="243" font-family="Segoe UI, Arial, sans-serif" font-size="20" font-weight="600" fill="#323130">Security Edge</text>
</g>
<g id="bAppl0">
  <rect x="48" y="293" width="196" height="72" rx="12" fill="#DEECF9" stroke="#0078D4" stroke-width="2" filter="url(#shadow)"/>
  <g transform="translate(72,317)"><use href="#ic-server" x="0" y="0" width="24" height="24" color="#0078D4"/></g>
  <text x="104" y="326" font-family="Segoe UI, Arial, sans-serif" font-size="20" font-weight="600" fill="#003966">Customer</text>
  <text x="104" y="342" font-family="Segoe UI, Arial, sans-serif" font-size="20" font-weight="600" fill="#003966">Platform</text>
</g>
<g id="bAppl1">
  <rect x="268" y="293" width="196" height="72" rx="12" fill="#DEECF9" stroke="#0078D4" stroke-width="2" filter="url(#shadow)"/>
  <g transform="translate(292,317)"><use href="#ic-server" x="0" y="0" width="24" height="24" color="#0078D4"/></g>
  <text x="324" y="334" font-family="Segoe UI, Arial, sans-serif" font-size="20" font-weight="600" fill="#003966">Admin Platform</text>
</g>
<g id="bAppl2">
  <rect x="488" y="293" width="196" height="72" rx="12" fill="#DEECF9" stroke="#0078D4" stroke-width="2" filter="url(#shadow)"/>
  <g transform="translate(512,317)"><use href="#ic-api" x="0" y="0" width="24" height="24" color="#0078D4"/></g>
  <text x="544" y="326" font-family="Segoe UI, Arial, sans-serif" font-size="20" font-weight="600" fill="#003966">Integration</text>
  <text x="544" y="342" font-family="Segoe UI, Arial, sans-serif" font-size="20" font-weight="600" fill="#003966">Platform</text>
</g>
<g id="bDoma0">
  <rect x="48" y="385" width="190" height="72" rx="12" fill="#DEECF9" stroke="#0078D4" stroke-width="2" filter="url(#shadow)"/>
  <g transform="translate(72,409)"><use href="#ic-server" x="0" y="0" width="24" height="24" color="#0078D4"/></g>
  <text x="104" y="426" font-family="Segoe UI, Arial, sans-serif" font-size="20" font-weight="600" fill="#003966">Trading</text>
</g>
<g id="bDoma1">
  <rect x="262" y="385" width="190" height="72" rx="12" fill="#DEECF9" stroke="#0078D4" stroke-width="2" filter="url(#shadow)"/>
  <g transform="translate(286,409)"><use href="#ic-wallet" x="0" y="0" width="24" height="24" color="#0078D4"/></g>
  <text x="318" y="426" font-family="Segoe UI, Arial, sans-serif" font-size="20" font-weight="600" fill="#003966">Wallet</text>
</g>
<g id="bDoma2">
  <rect x="476" y="385" width="190" height="72" rx="12" fill="#DEECF9" stroke="#0078D4" stroke-width="2" filter="url(#shadow)"/>
  <g transform="translate(500,409)"><use href="#ic-wallet" x="0" y="0" width="24" height="24" color="#0078D4"/></g>
  <text x="532" y="426" font-family="Segoe UI, Arial, sans-serif" font-size="20" font-weight="600" fill="#003966">Treasury</text>
</g>
<g id="bDoma3">
  <rect x="691" y="385" width="190" height="72" rx="12" fill="#DEECF9" stroke="#0078D4" stroke-width="2" filter="url(#shadow)"/>
  <g transform="translate(715,409)"><use href="#ic-server" x="0" y="0" width="24" height="24" color="#0078D4"/></g>
  <text x="747" y="426" font-family="Segoe UI, Arial, sans-serif" font-size="20" font-weight="600" fill="#003966">P2P</text>
</g>
<g id="bDoma4">
  <rect x="905" y="385" width="190" height="72" rx="12" fill="#DEECF9" stroke="#0078D4" stroke-width="2" filter="url(#shadow)"/>
  <g transform="translate(929,409)"><use href="#ic-shield" x="0" y="0" width="24" height="24" color="#0078D4"/></g>
  <text x="961" y="426" font-family="Segoe UI, Arial, sans-serif" font-size="20" font-weight="600" fill="#003966">Compliance</text>
</g>
<g id="bFina0">
  <rect x="48" y="477" width="196" height="72" rx="12" fill="#DEECF9" stroke="#0078D4" stroke-width="2" filter="url(#shadow)"/>
  <g transform="translate(72,501)"><use href="#ic-queue" x="0" y="0" width="24" height="24" color="#0078D4"/></g>
  <text x="104" y="518" font-family="Segoe UI, Arial, sans-serif" font-size="20" font-weight="600" fill="#003966">Notification</text>
</g>
<g id="bFina1">
  <rect x="268" y="477" width="196" height="72" rx="12" fill="#DEECF9" stroke="#0078D4" stroke-width="2" filter="url(#shadow)"/>
  <g transform="translate(292,501)"><use href="#ic-server" x="0" y="0" width="24" height="24" color="#0078D4"/></g>
  <text x="324" y="518" font-family="Segoe UI, Arial, sans-serif" font-size="20" font-weight="600" fill="#003966">Settlement</text>
</g>
<g id="bFina2">
  <rect x="488" y="477" width="196" height="72" rx="12" fill="#FFF4CE" stroke="#FFB900" stroke-width="2" filter="url(#shadow)"/>
  <g transform="translate(512,501)"><use href="#ic-database" x="0" y="0" width="24" height="24" color="#FFB900"/></g>
  <text x="544" y="518" font-family="Segoe UI, Arial, sans-serif" font-size="20" font-weight="600" fill="#5C4B00">Ledger</text>
</g>
<g id="bPlat0">
  <rect x="48" y="568" width="196" height="72" rx="12" fill="#FFF4CE" stroke="#FFB900" stroke-width="2" filter="url(#shadow)"/>
  <g transform="translate(72,592)"><use href="#ic-database" x="0" y="0" width="24" height="24" color="#FFB900"/></g>
  <text x="104" y="609" font-family="Segoe UI, Arial, sans-serif" font-size="20" font-weight="600" fill="#5C4B00">Database</text>
</g>
<g id="bPlat1">
  <rect x="268" y="568" width="196" height="72" rx="12" fill="#FFF4CE" stroke="#FFB900" stroke-width="2" filter="url(#shadow)"/>
  <g transform="translate(292,592)"><use href="#ic-database" x="0" y="0" width="24" height="24" color="#FFB900"/></g>
  <text x="324" y="601" font-family="Segoe UI, Arial, sans-serif" font-size="20" font-weight="600" fill="#5C4B00">Distributed</text>
  <text x="324" y="617" font-family="Segoe UI, Arial, sans-serif" font-size="20" font-weight="600" fill="#5C4B00">Cache</text>
</g>
<g id="bPlat2">
  <rect x="488" y="568" width="196" height="72" rx="12" fill="#FFF4CE" stroke="#FFB900" stroke-width="2" filter="url(#shadow)"/>
  <g transform="translate(512,592)"><use href="#ic-queue" x="0" y="0" width="24" height="24" color="#FFB900"/></g>
  <text x="544" y="609" font-family="Segoe UI, Arial, sans-serif" font-size="20" font-weight="600" fill="#5C4B00">Message Broker</text>
</g>
<g id="bPlat3">
  <rect x="708" y="568" width="196" height="72" rx="12" fill="#F3F2F1" stroke="#605E5C" stroke-width="2" filter="url(#shadow)"/>
  <g transform="translate(732,592)"><use href="#ic-container" x="0" y="0" width="24" height="24" color="#605E5C"/></g>
  <text x="764" y="609" font-family="Segoe UI, Arial, sans-serif" font-size="20" font-weight="600" fill="#323130">Containers</text>
</g>
<g id="bObse0">
  <rect x="48" y="660" width="196" height="72" rx="12" fill="#D4EDDA" stroke="#107C10" stroke-width="2" filter="url(#shadow)"/>
  <g transform="translate(72,684)"><use href="#ic-monitor" x="0" y="0" width="24" height="24" color="#107C10"/></g>
  <text x="104" y="701" font-family="Segoe UI, Arial, sans-serif" font-size="20" font-weight="600" fill="#0B4A0B">Monitoring</text>
</g>
<g id="bObse1">
  <rect x="268" y="660" width="196" height="72" rx="12" fill="#D4EDDA" stroke="#107C10" stroke-width="2" filter="url(#shadow)"/>
  <g transform="translate(292,684)"><use href="#ic-monitor" x="0" y="0" width="24" height="24" color="#107C10"/></g>
  <text x="324" y="701" font-family="Segoe UI, Arial, sans-serif" font-size="20" font-weight="600" fill="#0B4A0B">Dashboards</text>
</g>
<g id="bObse2">
  <rect x="488" y="660" width="196" height="72" rx="12" fill="#D4EDDA" stroke="#107C10" stroke-width="2" filter="url(#shadow)"/>
  <g transform="translate(512,684)"><use href="#ic-monitor" x="0" y="0" width="24" height="24" color="#107C10"/></g>
  <text x="544" y="693" font-family="Segoe UI, Arial, sans-serif" font-size="20" font-weight="600" fill="#0B4A0B">Health</text>
  <text x="544" y="709" font-family="Segoe UI, Arial, sans-serif" font-size="20" font-weight="600" fill="#0B4A0B">Management</text>
</g>
<line x1="28" y1="752" x2="1095" y2="752" stroke="#D2D0CE" stroke-width="1"/>
<text x="36" y="770" font-family="Segoe UI, Arial, sans-serif" font-size="15" font-weight="700" fill="#201F1E">Legend:</text>
<rect x="94" y="758" width="16" height="12" rx="3" fill="#DEECF9" stroke="#0078D4" stroke-width="1.5"/>
<text x="116" y="770" font-family="Segoe UI, Arial, sans-serif" font-size="15" fill="#605E5C">Application</text>
<rect x="202" y="758" width="16" height="12" rx="3" fill="#FFF4CE" stroke="#FFB900" stroke-width="1.5"/>
<text x="224" y="770" font-family="Segoe UI, Arial, sans-serif" font-size="15" fill="#605E5C">Data Store</text>
<rect x="310" y="758" width="16" height="12" rx="3" fill="#D4EDDA" stroke="#107C10" stroke-width="1.5"/>
<text x="332" y="770" font-family="Segoe UI, Arial, sans-serif" font-size="15" fill="#605E5C">Monitoring</text>
<rect x="418" y="758" width="16" height="12" rx="3" fill="#F3F2F1" stroke="#605E5C" stroke-width="1.5"/>
<text x="440" y="770" font-family="Segoe UI, Arial, sans-serif" font-size="15" fill="#605E5C">Infrastructure</text>
<rect x="526" y="758" width="16" height="12" rx="3" fill="#E7DFEC" stroke="#5C2D91" stroke-width="1.5"/>
<text x="548" y="770" font-family="Segoe UI, Arial, sans-serif" font-size="15" fill="#605E5C">External</text>
<line x1="634" y1="764" x2="656" y2="764" stroke="#0078D4" stroke-width="2.5" marker-end="url(#pa)"/>
<text x="662" y="770" font-family="Segoe UI, Arial, sans-serif" font-size="15" fill="#605E5C">Primary</text>
<line x1="722" y1="764" x2="744" y2="764" stroke="#8A8886" stroke-width="1" stroke-dasharray="5 4" marker-end="url(#sa)"/>
<text x="750" y="770" font-family="Segoe UI, Arial, sans-serif" font-size="15" fill="#605E5C">Dependency</text>
</svg>
